<svg id="Capa_1" data-name="Capa 1" xmlns="http://www.w3.org/2000/svg" viewBox="0 0 936.79 399.35"><defs><style>.cls-1{fill:#fff;}</style></defs><path class="cls-1" d="M640.76,428.4c0,21.24-.07,42.48.07,63.72,0,3.28-.84,4.44-4.19,4.24-4.61-.28-9.24-.16-13.86,0A5.69,5.69,0,0,1,617.7,494Q597,468.31,576.14,442.8q-12.4-15.26-24.82-30.5c-.67-.82-1.26-2.38-2.42-2-1.49.48-.8,2.17-.8,3.31,0,26.11-.09,52.22,0,78.34,0,3.39-.85,4.56-4.37,4.41-6.48-.27-13-.15-19.47,0-2.63.06-3.78-.59-3.78-3.52q.12-64.67,0-129.32c0-2.71,1-3.45,3.51-3.37,4.86.15,9.74.16,14.61,0a6.11,6.11,0,0,1,5.36,2.65q32.64,39.83,65.38,79.57c.56.67,1.1,1.37,1.71,2,1.23,1.27,1.95.8,2.12-.78a27,27,0,0,0,.06-3c0-25.49.05-51-.07-76.47,0-3.1.81-4.09,3.95-4,6.61.23,13.24.19,19.85,0,2.93-.08,3.85.83,3.84,3.82-.12,21.49-.07,43-.07,64.47Z" transform="translate(100.88 -204.89)"/><path class="cls-1" d="M199.21,411.7q-.09,23.24-.18,46.46c0,11.49-.13,23,.06,34.47,0,3.13-1.08,3.81-3.9,3.7-4.61-.18-9.24-.16-13.85,0-2.53.1-4.1-.9-5.65-2.82q-33.19-41-66.54-82c-.52-.63-.92-1.5-2.17-1.59-.84,1.58-.43,3.34-.43,5,0,25.73-.07,51.46.06,77.19,0,3.26-.77,4.34-4.13,4.21-6.61-.27-13.23-.15-19.85,0-2.46,0-3.58-.58-3.57-3.33q.1-64.81,0-129.65c0-2.49.85-3.27,3.26-3.21,5.11.12,10.23.1,15.35,0a5.16,5.16,0,0,1,4.41,2.26q33.21,40.55,66.49,81c.6.73,1,1.78,2.27,1.84,1.18-1.1.59-2.56.59-3.84,0-25.6.11-51.21-.06-76.81,0-3.73,1.13-4.66,4.65-4.51,6.48.26,13,.2,19.47,0,2.79-.08,3.61.79,3.59,3.6-.09,13,.06,26,.12,39Z" transform="translate(100.88 -204.89)"/><path class="cls-1" d="M695.8,405.67c3.31-9.51,7.85-18.29,14.54-25.94,11.2-12.82,25.24-20.23,42.08-21.89s33.24.33,47.63,10.3c19.75,13.69,29.56,32.94,30.49,56.77.74,18.89-4.08,36.07-16.4,50.78-15.38,18.37-35.42,24.86-58.73,23.46-36-2.16-62.36-33.39-62.42-69,0-3.87.17-7.74.25-11.61ZM802.31,428.9a58,58,0,0,0-3.92-20.5c-10.18-26.7-46.48-33.5-65.3-12-12.22,13.94-14.08,30.24-9.27,47.45,7.09,25.33,36.52,37,58.64,23.18C796.54,458.24,801.88,444.52,802.31,428.9Z" transform="translate(100.88 -204.89)"/><path class="cls-1" d="M327,494.77l-3.42.59-3.05.4-3.71.24q-26,.06-52,.12c-5.23,0-5.24,0-5.24-5.24q0-65.13-.07-130.27l.16-.24,10.84,0,41.81-.23c1.71.64,3.47.37,5.22.36a15.62,15.62,0,0,0,5.26.61l2.2.28a2.93,2.93,0,0,0,2.31.31l3.27.79c2.48,1.34,5.26,1.78,7.94,2.51l3.27,1.26a2.6,2.6,0,0,0,2,1l8.66,4.91a2.25,2.25,0,0,0,1.79,1.3l2.09,1.63a2.49,2.49,0,0,0,1.65,1.4l2.43,2.22,4.32,4.52c17.29,22.64,19.51,47.55,9.74,73.52-6.7,17.79-20.41,29.09-38.17,35.51-1.53.39-3.14.5-4.5,1.44l-1.47.33A4.58,4.58,0,0,0,327,494.77ZM287,428.33c0,13.49,0,27-.05,40.46,0,2.44.77,3.28,3.22,3.24,6.62-.13,13.24.17,19.84-.1,14-.56,25.65-6.05,34-17.55,6.79-9.37,8.06-20.13,7.37-31.38a40,40,0,0,0-30-36.84c-10-2.69-20.11-1.2-30.16-1.73-3.33-.18-4.27.95-4.23,4.23C287.07,401.88,287,415.11,287,428.33Z" transform="translate(100.88 -204.89)"/><path class="cls-1" d="M5.16,495.59C2.43,488.1-.36,480.62-3,473.1c-.81-2.3-1.9-3.33-4.54-3.31q-25.83.19-51.66,0c-2.58,0-3.73.9-4.55,3.28-2.36,6.84-5.06,13.56-7.43,20.39a3.68,3.68,0,0,1-4.1,2.86c-7.6-.1-15.22-.13-22.83,0-3,.05-3.24-.95-2.22-3.52Q-79.11,439.46-58,386.05c3-7.65,6.11-15.29,9-23,.84-2.21,2-3,4.41-2.95,7.36.15,14.73.18,22.08,0,2.71-.08,4,.93,4.94,3.35q18.95,48.23,38,96.38c1.46,3.7,3.09,7.33,4.64,11a121.12,121.12,0,0,0,6,15.47c.41,1.1.82,2.2,1.22,3.31.37,1.49.64,3,1.78,4.17.16.65.32,1.31.47,2-5.33.82-10.7.35-16,.33C14.09,496.06,9.58,496.72,5.16,495.59Zm-38.38-48c5.61,0,11.24-.15,16.85.06,3.43.13,3.82-1.07,2.56-3.88-1.08-2.38-1.9-4.88-2.82-7.33q-7.7-20.7-15.43-41.39c-.31-.84-.19-2.19-1.55-2.25-.77,0-.81.81-1,1.38q-9.32,25.28-18.66,50.56c-.8,2.15-.2,2.91,2.09,2.88C-45.21,447.5-39.22,447.56-33.22,447.56Z" transform="translate(100.88 -204.89)"/><path class="cls-1" d="M537.78,312.07l28.67,29.21c-5.22,0-9.61.08-14-.06-1.27,0-2-1.38-2.89-2.26-11.74-11.74-23.56-23.41-35.14-35.31-2.54-2.6-3.87-2.27-6.19.1-11.44,11.68-23.09,23.16-34.54,34.83a8.2,8.2,0,0,1-6.87,2.84c-3.3-.22-6.62-.05-9.93-.05-.22-.38-.44-.75-.65-1.13,2.17-2,4.44-3.86,6.52-5.93,12.64-12.61,25.15-25.35,37.92-37.82,2.8-2.74,2.59-4.22-.13-6.74-5.49-5.08-10.74-10.45-15.89-15.88-2-2.11-3.14-1.86-5.06.08Q448,305.84,416.13,337.59c-.94.94-1.7,2.16-3.29,2.69-.46-4.89-.72-9,3.46-13.17q60.19-59.76,119.85-120c2.65-2.66,4.28-3.13,6.45,0a5,5,0,0,0,1.16.89,27.37,27.37,0,0,0,5.1,5.43Q573,237.7,597.17,262q33.3,33.44,66.71,66.76c3.58,3.54,1.34,7.5,2.47,11.6-2.24-.56-3.1-2-4.17-3.07Q617.59,292.64,573,247.94c-4.48-4.49-4.48-4.5-8.94,0-4.94,4.95-9.77,10-14.86,14.8-2.12,2-1.82,3.1.1,5q35,34.9,69.87,70c.95.95,1.86,1.94,3.48,3.64-5.23,0-9.63.05-14,0-1.53,0-2.28-1.42-3.23-2.36q-31.5-31.53-62.91-63.15c-2.59-2.62-4-2.58-6.43.06-4.81,5.24-9.94,10.18-15,15.14-1.66,1.61-2,2.74-.16,4.51,4.44,4.19,8.7,8.56,13,12.86Zm1.2-97.26a15.45,15.45,0,0,0-1.54,1.25c-6,6-11.94,12-18,17.95-1.61,1.58-1.15,2.61.25,4q8.77,8.65,17.41,17.47c1.49,1.53,2.54,1.92,4.24.17,5.8-6,11.73-11.88,17.69-17.73,1.49-1.46,1.54-2.48,0-4-6-5.93-12-12-18-18A2.62,2.62,0,0,0,539,214.81ZM510.36,244c-1.16-.08-1.59.61-2.1,1.12-5.69,5.76-11.33,11.58-17.08,17.29-1.52,1.52-.93,2.42.32,3.65,5.85,5.78,11.69,11.58,17.42,17.48,1.65,1.7,2.73,2,4.51.1,5.26-5.48,10.65-10.85,16.1-16.14,1.73-1.68,1.86-2.8.07-4.54-5.9-5.73-11.65-11.62-17.47-17.43C511.53,244.9,510.84,244.38,510.36,244Z" transform="translate(100.88 -204.89)"/><path class="cls-1" d="M432.55,375.64q.09-7.49.17-15c9.08-.66,18.18-.32,27.27-.18q.06,26.19.13,52.37c0,14.34,0,28.69,0,43,0,1.48.18,3,.28,4.46a16,16,0,0,0,0,6.17q-.12,14.61-.26,29.22a187.28,187.28,0,0,1-27.42,0q0-55.85,0-111.7c0-1.75-.11-3.49-.16-5.24A5.42,5.42,0,0,0,432.55,375.64Z" transform="translate(100.88 -204.89)"/><path class="cls-1" d="M692.94,603.3c-3.74,0-7.48-.07-11.22,0-2,0-2.94-.51-2.93-2.72q.09-26.21,0-52.4c0-2.14.78-2.82,2.85-2.8,6.85.08,13.72-.12,20.57.07,6.38.18,11.41,3.08,13.84,9.1,2.37,5.85,1.81,11.56-3.11,16.14-1.93,1.79-.42,2.29.79,3.26,8.55,6.88,8.61,19.28.16,25.87a17.07,17.07,0,0,1-10.47,3.45C699.93,603.35,696.44,603.3,692.94,603.3Zm-7.73-17.09c0,2.75.09,5.5,0,8.23-.1,2.22.66,3.15,3,3.08,4.73-.12,9.47.05,14.2-.06,6.56-.16,11.29-4.54,11.45-10.44a11.44,11.44,0,0,0-11.13-11.73c-4.85-.22-9.72,0-14.57-.11-2.37-.06-3,1-2.94,3.18C685.29,581,685.21,583.6,685.21,586.21Zm9.44-16.62a75.89,75.89,0,0,0,7.84,0c5.48-.6,8.57-4.26,8.38-9.56-.17-4.88-3.68-8.33-9-8.65-2.48-.15-5,0-7.47,0-9.18,0-9.18,0-9.2,9.2S685.19,569.8,694.65,569.59Z" transform="translate(100.88 -204.89)"/><path class="cls-1" d="M576.81,545.84q11.1,26.8,22.13,53.61c.46,1.13,2.28,3.06-.06,3.65-1.86.46-4.62,1.36-5.86-1.58-1.49-3.57-3-7.12-4.34-10.76-.9-2.56-2.21-3.76-5.15-3.65-6.61.23-13.24.21-19.85,0-2.77-.09-4,1-4.89,3.44-1.27,3.52-2.77,7-4.24,10.4-.88,2-4.8,3.35-6.57,2.19s-.19-2.31.2-3.25c5.75-14.1,11.6-28.15,17.44-42.21,1.67-4,3.41-8,5.12-12Zm-3.08,35.41c2.49,0,5-.1,7.47,0s3.24-.57,2.23-3c-2.84-6.77-5.58-13.58-8.41-20.36-.3-.72-.2-2-1.41-1.88-1,.1-1.08,1.24-1.4,2-2.47,6-4.91,12-7.38,18-2.16,5.23-2.17,5.22,3.67,5.23Z" transform="translate(100.88 -204.89)"/><path class="cls-1" d="M816.13,604.25A26.24,26.24,0,0,1,799,597.9c-1.56-1.34-2.47-2.46-.58-4.57s2.68-1.59,4.43-.08a19.75,19.75,0,0,0,18.54,4.27,10,10,0,0,0,7.86-8.94c.37-4.1-1.54-7.28-6.21-9.17-4.38-1.78-9-3-13.44-4.58-8.83-3.1-12.53-8.64-11.35-16.86,1.07-7.35,7.95-12.9,16.28-13.32a24.21,24.21,0,0,1,16.8,5.05c1.16.91,2.86,1.84,1.15,3.5-1.31,1.26-2.29,3.88-5,1.42a15.49,15.49,0,0,0-15.71-3.34c-4.39,1.36-7.07,4.65-7.26,8.54-.2,4.06,1.93,7.12,6.6,8.92,3.72,1.43,7.55,2.56,11.34,3.82q15.18,5,13.3,17.07c-1.41,9-8.53,14.57-18.82,14.62Z" transform="translate(100.88 -204.89)"/><path class="cls-1" d="M446,571.47c0,7.61.06,15.22,0,22.83,0,2.41.78,3.27,3.24,3.23,7.73-.12,15.46,0,23.19-.07,2,0,3.2.25,3.2,2.78s-1,3.12-3.35,3.1q-14.76-.15-29.54,0c-2.44,0-3.18-.73-3.17-3.19q.15-25.83,0-51.65c0-2.1.33-3.21,2.82-3.14s3.72.45,3.67,3.28C445.91,556.25,446,563.86,446,571.47Z" transform="translate(100.88 -204.89)"/></svg>